<?xml version="1.0" encoding="UTF-8" standalone="no"?>
<svg width="1200" height="800" viewBox="0 0 1200 800" xmlns="http://www.w3.org/2000/svg">
  <defs>
    <pattern id="smallGrid" width="20" height="20" patternUnits="userSpaceOnUse">
      <path d="M 20 0 L 0 0 0 20" fill="none" stroke="#333333" stroke-width="0.5"/>
    </pattern>
    <pattern id="grid" width="100" height="100" patternUnits="userSpaceOnUse">
      <rect width="100" height="100" fill="url(#smallGrid)"/>
      <path d="M 100 0 L 0 0 0 100" fill="none" stroke="#444444" stroke-width="1"/>
    </pattern>
    
    <!-- Airplane symbol -->
    <symbol id="airplane" viewBox="0 0 24 24">
      <path d="M21,16V14L13,9V3.5A1.5,1.5 0 0,0 11.5,2A1.5,1.5 0 0,0 10,3.5V9L2,14V16L10,13.5V19L8,20.5V22L11.5,21L15,22V20.5L13,19V13.5L21,16Z" />
    </symbol>
    
    <!-- Dice symbol -->
    <symbol id="dice" viewBox="0 0 24 24">
      <rect width="20" height="20" x="2" y="2" rx="2" ry="2" fill="#333333" stroke="#555555" stroke-width="1"/>
      <circle cx="7" cy="7" r="2" fill="#aaaaaa"/>
      <circle cx="17" cy="7" r="2" fill="#aaaaaa"/>
      <circle cx="7" cy="17" r="2" fill="#aaaaaa"/>
      <circle cx="17" cy="17" r="2" fill="#aaaaaa"/>
      <circle cx="12" cy="12" r="2" fill="#aaaaaa"/>
    </symbol>
  </defs>
  
  <!-- Background grid -->
  <rect width="1200" height="800" fill="#121212"/>
  <rect width="1200" height="800" fill="url(#grid)"/>
  
  <!-- Colored corners representing player areas -->
  <circle cx="200" cy="200" r="150" fill="rgba(255,77,109,0.1)" stroke="#ff4d6d" stroke-width="1"/>
  <circle cx="1000" cy="200" r="150" fill="rgba(76,201,240,0.1)" stroke="#4cc9f0" stroke-width="1"/>
  <circle cx="1000" cy="600" r="150" fill="rgba(255,209,102,0.1)" stroke="#ffd166" stroke-width="1"/>
  <circle cx="200" cy="600" r="150" fill="rgba(6,214,160,0.1)" stroke="#06d6a0" stroke-width="1"/>
  
  <!-- Center game board representation -->
  <circle cx="600" cy="400" r="250" fill="none" stroke="#444444" stroke-width="2"/>
  <circle cx="600" cy="400" r="200" fill="none" stroke="#444444" stroke-width="1"/>
  <circle cx="600" cy="400" r="150" fill="none" stroke="#444444" stroke-width="1"/>
  <circle cx="600" cy="400" r="100" fill="none" stroke="#444444" stroke-width="1"/>
  <circle cx="600" cy="400" r="50" fill="none" stroke="#444444" stroke-width="1"/>
  
  <!-- Game paths -->
  <path d="M 600,150 L 600,650" stroke="#444444" stroke-width="2" stroke-dasharray="5,5"/>
  <path d="M 350,400 L 850,400" stroke="#444444" stroke-width="2" stroke-dasharray="5,5"/>
  
  <!-- Diagonal paths -->
  <path d="M 400,200 L 800,600" stroke="#444444" stroke-width="2" stroke-dasharray="5,5"/>
  <path d="M 400,600 L 800,200" stroke="#444444" stroke-width="2" stroke-dasharray="5,5"/>
  
  <!-- Decorative airplanes -->
  <use href="#airplane" x="180" y="180" width="40" height="40" fill="#ff4d6d" opacity="0.8" transform="rotate(45, 200, 200)"/>
  <use href="#airplane" x="980" y="180" width="40" height="40" fill="#4cc9f0" opacity="0.8" transform="rotate(135, 1000, 200)"/>
  <use href="#airplane" x="980" y="580" width="40" height="40" fill="#ffd166" opacity="0.8" transform="rotate(225, 1000, 600)"/>
  <use href="#airplane" x="180" y="580" width="40" height="40" fill="#06d6a0" opacity="0.8" transform="rotate(315, 200, 600)"/>
  
  <!-- Decorative dice -->
  <use href="#dice" x="580" y="380" width="40" height="40" opacity="0.8"/>
</svg>
