<?xml version="1.0" encoding="UTF-8" standalone="no"?>
<svg width="512" height="512" viewBox="0 0 512 512" xmlns="http://www.w3.org/2000/svg">
  <!-- 背景 -->
  <defs>
    <linearGradient id="boardGradientLight" x1="0%" y1="0%" x2="100%" y2="100%">
      <stop offset="0%" stop-color="#f8f9fa" />
      <stop offset="100%" stop-color="#dee2e6" />
    </linearGradient>
    <linearGradient id="boardGradientDark" x1="0%" y1="0%" x2="100%" y2="100%">
      <stop offset="0%" stop-color="#1e1e1e" />
      <stop offset="100%" stop-color="#121212" />
    </linearGradient>
    <linearGradient id="redGradient" x1="0%" y1="0%" x2="100%" y2="100%">
      <stop offset="0%" stop-color="#ff4d6d" />
      <stop offset="100%" stop-color="#c9184a" />
    </linearGradient>
    <linearGradient id="blueGradient" x1="0%" y1="0%" x2="100%" y2="100%">
      <stop offset="0%" stop-color="#4cc9f0" />
      <stop offset="100%" stop-color="#4361ee" />
    </linearGradient>
    <linearGradient id="yellowGradient" x1="0%" y1="0%" x2="100%" y2="100%">
      <stop offset="0%" stop-color="#ffd166" />
      <stop offset="100%" stop-color="#e29e21" />
    </linearGradient>
    <linearGradient id="greenGradient" x1="0%" y1="0%" x2="100%" y2="100%">
      <stop offset="0%" stop-color="#06d6a0" />
      <stop offset="100%" stop-color="#099773" />
    </linearGradient>
    <filter id="shadow" x="-20%" y="-20%" width="140%" height="140%">
      <feDropShadow dx="0" dy="4" stdDeviation="10" flood-opacity="0.3" />
    </filter>
    <filter id="glow" x="-20%" y="-20%" width="140%" height="140%">
      <feGaussianBlur stdDeviation="5" result="blur" />
      <feComposite in="SourceGraphic" in2="blur" operator="over" />
    </filter>
    
    <style>
      @media (prefers-color-scheme: dark) {
        #board { fill: url(#boardGradientDark); stroke: #333333; }
        #grid { stroke: #333333; }
        #dice { fill: #333333; stroke: #444444; }
        #dice-dots { fill: #ffffff; }
        #outer-circle { stroke: #444444; }
        .plane { filter: url(#glow); }
        .color-area { filter: url(#glow); }
      }
      @media (prefers-color-scheme: light) {
        #board { fill: url(#boardGradientLight); stroke: #dee2e6; }
        #grid { stroke: #e9ecef; }
        #dice { fill: white; stroke: #dee2e6; }
        #dice-dots { fill: #212529; }
        #outer-circle { stroke: #dee2e6; }
        .plane { filter: none; }
        .color-area { filter: none; }
      }
    </style>
  </defs>
  
  <!-- 主背景 - 棋盘 -->
  <circle id="board" cx="256" cy="256" r="240" fill="url(#boardGradientLight)" stroke="#dee2e6" stroke-width="8" filter="url(#shadow)" />
  
  <!-- 棋盘格局 -->
  <g id="grid" stroke="#e9ecef" stroke-width="2" fill="none">
    <circle cx="256" cy="256" r="200" />
    <circle cx="256" cy="256" r="160" />
    <circle cx="256" cy="256" r="120" />
    <circle cx="256" cy="256" r="80" />
    <line x1="56" y1="256" x2="456" y2="256" />
    <line x1="256" y1="56" x2="256" y2="456" />
    <line x1="106" y1="106" x2="406" y2="406" />
    <line x1="106" y1="406" x2="406" y2="106" />
  </g>
  
  <!-- 四个角的颜色区域 -->
  <circle class="color-area" cx="136" cy="136" r="60" fill="url(#redGradient)" opacity="0.9" />
  <circle class="color-area" cx="376" cy="136" r="60" fill="url(#blueGradient)" opacity="0.9" />
  <circle class="color-area" cx="376" cy="376" r="60" fill="url(#yellowGradient)" opacity="0.9" />
  <circle class="color-area" cx="136" cy="376" r="60" fill="url(#greenGradient)" opacity="0.9" />
  
  <!-- 中心骰子 -->
  <g transform="translate(226, 226)">
    <rect id="dice" width="60" height="60" rx="10" ry="10" fill="white" stroke="#dee2e6" stroke-width="2" filter="url(#shadow)" />
    <g id="dice-dots" fill="#212529">
      <circle cx="15" cy="15" r="5" />
      <circle cx="45" cy="15" r="5" />
      <circle cx="15" cy="45" r="5" />
      <circle cx="45" cy="45" r="5" />
      <circle cx="30" cy="30" r="5" />
    </g>
  </g>
  
  <!-- 飞机图标 -->
  <g class="plane" transform="translate(116, 116) rotate(45, 20, 20) scale(0.8)">
    <path d="M40,30V26L24,16V4.5A2.5,2.5 0 0,0 21.5,2A2.5,2.5 0 0,0 19,4.5V16L3,26V30L19,25.5V35L15,37.5V40L21.5,38L28,40V37.5L24,35V25.5L40,30Z" fill="white" />
  </g>
  
  <g class="plane" transform="translate(356, 116) rotate(135, 20, 20) scale(0.8)">
    <path d="M40,30V26L24,16V4.5A2.5,2.5 0 0,0 21.5,2A2.5,2.5 0 0,0 19,4.5V16L3,26V30L19,25.5V35L15,37.5V40L21.5,38L28,40V37.5L24,35V25.5L40,30Z" fill="white" />
  </g>
  
  <g class="plane" transform="translate(356, 356) rotate(225, 20, 20) scale(0.8)">
    <path d="M40,30V26L24,16V4.5A2.5,2.5 0 0,0 21.5,2A2.5,2.5 0 0,0 19,4.5V16L3,26V30L19,25.5V35L15,37.5V40L21.5,38L28,40V37.5L24,35V25.5L40,30Z" fill="white" />
  </g>
  
  <g class="plane" transform="translate(116, 356) rotate(315, 20, 20) scale(0.8)">
    <path d="M40,30V26L24,16V4.5A2.5,2.5 0 0,0 21.5,2A2.5,2.5 0 0,0 19,4.5V16L3,26V30L19,25.5V35L15,37.5V40L21.5,38L28,40V37.5L24,35V25.5L40,30Z" fill="white" />
  </g>
  
  <!-- 外圈装饰 -->
  <circle id="outer-circle" cx="256" cy="256" r="240" fill="none" stroke="#dee2e6" stroke-width="8" stroke-dasharray="20,10" />
</svg>
